<?xml version="1.0" encoding="UTF-8" standalone="no"?>
<svg
   viewBox="0 0 128 128"
   version="1.1"
   id="svg5"
   sodipodi:docname="jupyter-gray.svg"
   inkscape:version="1.4 (86a8ad7, 2024-10-11)"
   xmlns:inkscape="http://www.inkscape.org/namespaces/inkscape"
   xmlns:sodipodi="http://sodipodi.sourceforge.net/DTD/sodipodi-0.dtd"
   xmlns="http://www.w3.org/2000/svg"
   xmlns:svg="http://www.w3.org/2000/svg">
  <defs
     id="defs5" />
  <sodipodi:namedview
     id="namedview5"
     pagecolor="#ffffff"
     bordercolor="#000000"
     borderopacity="0.25"
     inkscape:showpageshadow="2"
     inkscape:pageopacity="0.0"
     inkscape:pagecheckerboard="0"
     inkscape:deskcolor="#d1d1d1"
     inkscape:zoom="6.3671875"
     inkscape:cx="64"
     inkscape:cy="64"
     inkscape:window-width="1920"
     inkscape:window-height="1017"
     inkscape:window-x="-8"
     inkscape:window-y="-8"
     inkscape:window-maximized="1"
     inkscape:current-layer="svg5" />
  <path
     d="m 6.648,67.352 c 0,3.91 -0.363,5.183 -1.296,6.12 -1.036,0.81 -2.383,1.255 -3.782,1.255 l 0.364,2.234 c 2.164,0.023 4.265,-0.637 5.906,-1.856 0.883,-0.93 1.539,-2 1.93,-3.152 0.388671,-1.14057 0.507451,-2.355755 0.347,-3.55 V 53.608 H 6.648 Z M 32.531,65.59 c 0,1.676 0,3.172 0.153,4.469 h -3.082 l -0.207,-2.66 c -0.645,0.94 -1.567,1.718 -2.672,2.25 -1.129355,0.540514 -2.369162,0.81032 -3.621,0.788 -3.004,0 -6.579,-1.406 -6.579,-7.148 v -9.543 h 3.473 v 8.938 c 0,3.105 1.113,5.183 4.246,5.183 0.640861,0.0084 1.278214,-0.09585 1.883,-0.308 0.5833,-0.203435 1.123784,-0.513348 1.594,-0.914 0.444583,-0.379644 0.804948,-0.847982 1.058,-1.375 0.24396,-0.50657 0.367184,-1.062792 0.36,-1.625 V 53.633 h 3.468 V 65.5 Z m 6.579,-6.527 c 0,-2.079 0,-3.778 -0.157,-5.317 h 3.11 l 0.152,2.793 c 0.695,-1.012 1.691,-1.84 2.887,-2.398 1.2195,-0.564019 2.555418,-0.830654 3.898,-0.778 4.613,0 8.082,3.332 8.082,8.29 0,5.855 -4.168,8.761 -8.676,8.761 -1.143238,0.04625 -2.28218,-0.166018 -3.332,-0.621 -1.027,-0.45 -1.906,-1.121 -2.547,-1.95 v 8.938 H 39.11 Z m 3.417,4.355 c 0.008,0.406 0.063,0.812 0.157,1.207 0.293,0.992 0.96,1.871 1.898,2.5 0.938,0.629 2.094,0.965 3.281,0.965 3.653,0 5.801,-2.57 5.801,-6.3 0,-3.263 -2.02,-6.056 -5.672,-6.056 -1.445,0.102 -2.797,0.653 -3.804,1.555 -1.004,0.902 -1.598,2.086 -1.66,3.336 z m 20.739,-9.688 4.172,9.63 c 0.443208,1.094893 0.84812,2.2049 1.214,3.328 0.364,-0.981 0.75,-2.235 1.22,-3.395 l 3.78,-9.563 h 3.653 l -5.18,11.618 c -2.59,5.586 -4.172,8.468 -6.555,10.21 -1.199,0.95 -2.664,1.61 -4.246,1.922 l -0.855,-2.5 c 1.086759,-0.305404 2.112297,-0.797026 3.031,-1.453 1.262,-0.89 2.266,-2.023 2.926,-3.308 0.139292,-0.218201 0.235997,-0.46081 0.285,-0.715 -0.03174,-0.272012 -0.110938,-0.53635 -0.234,-0.781 l -7.043,-15.04 h 3.78 z m 23.25,-4.687 v 4.691 h 4.972 v 2.235 h -4.972 v 8.804 c 0,2.012 0.675,3.172 2.59,3.172 0.678519,0.0091 1.355872,-0.05901 2.019,-0.203 l 0.156,2.238 c -0.99973,0.29533 -2.040022,0.430008 -3.082,0.399 -0.68926,0.03834 -1.379585,-0.05325 -2.035,-0.27 -0.633443,-0.206908 -1.218264,-0.540313 -1.719,-0.98 -1.054,-1.219 -1.535,-2.734 -1.347,-4.246 v -8.938 h -2.953 v -2.234 h 3.003 v -3.977 z m 11.367,13.375 c -0.07,0.758 0.05,1.52 0.355,2.23 0.317585,0.732281 0.798931,1.381944 1.407,1.899 0.625,0.539 1.375,0.953 2.203,1.215 0.824,0.265 1.71,0.367 2.586,0.308 1.76437,0.03813 3.52057,-0.250393 5.18,-0.851 l 0.597,2.234 c -2.03576,0.719029 -4.18563,1.060621 -6.344,1.008 -1.27,0.074 -2.539,-0.09 -3.726,-0.477 -1.159709,-0.374494 -2.232055,-0.978858 -3.153,-1.777 -0.89,-0.781 -1.578,-1.719 -2.008,-2.75 -0.427673,-1.015804 -0.596719,-2.121824 -0.492,-3.219 0,-4.918 3.395,-8.804 8.938,-8.804 6.215,0 7.77,4.691 7.77,7.687 0.03,0.461 0.03,0.922 0,1.383 H 97.804 Z m 10.152,-2.234 c 0.10097,-0.599385 0.0515,-1.214464 -0.144,-1.79 -0.20571,-0.592806 -0.54554,-1.130099 -0.993,-1.57 -0.47207,-0.469298 -1.0358,-0.836265 -1.656,-1.078 -0.64398,-0.255484 -1.3302,-0.387776 -2.023,-0.39 -1.422,0.09 -2.758,0.632 -3.739,1.527 -0.984,0.89 -1.543,2.066 -1.57,3.3 z m 8.425,-1.375 c 0,-1.918 0,-3.575 -0.155,-5.094 h 3.11 v 3.195 h 0.155 c 0.325,-0.984 1,-1.86 1.926,-2.5 0.93,-0.64 2.067,-1.015 3.254,-1.074 0.324,-0.035 0.656,-0.035 0.984,0 v 2.793 c -0.39604,-0.03904 -0.79496,-0.03904 -1.191,0 -1.176,0.039 -2.297,0.445 -3.148,1.144 -0.856,0.7 -1.383,1.645 -1.489,2.653 -0.097,0.46 -0.148,0.922 -0.156,1.386 v 8.692 h -3.418 V 58.832 Z"
     fill="#4e4e4e"
     id="path1"
     style="fill:#d5d5d5;fill-opacity:1"
     sodipodi:nodetypes="sccccccccsccccccsccscccccccccscccccscccccsccsssccccccccccccccccccccccccccscccccccccccccccccccccccccsccccccccccccccccccccccccccccc" />
  <path
     d="m 109.766,7.281 c 0.0633,1.5032238 -0.31565,2.992008 -1.09,4.282 -0.77219,1.283617 -1.90726,2.309773 -3.262,2.949 -1.35245,0.6349 -2.86388,0.850818 -4.34,0.62 C 99.595435,14.901563 98.219148,14.235527 97.121,13.219 94.866287,11.128024 94.084489,7.8893128 95.137,5 c 0.509114,-1.410416 1.423765,-2.63888 2.629,-3.531 1.202524,-0.88780166 2.64265,-1.39651118 4.136,-1.461 2.00119,-0.08432998 3.95316,0.63424602 5.422,1.996 1.47645,1.3672311 2.35275,3.2625402 2.438,5.273 z"
     fill="#767677"
     id="path2"
     sodipodi:nodetypes="ccccccccccc"
     style="fill:#d5d5d5;fill-opacity:1" />
  <path
     d="m 65.758,96.79 c -20.098,0 -37.649,-7.364 -46.766,-18.267 3.380647,9.762107 9.705024,18.235836 18.102,24.254 8.361815,5.99089 18.389564,9.2133 28.676,9.215 10.2858,-0.004 20.312609,-3.226 28.675,-9.215 8.39554,-6.017798 14.71743,-14.491939 18.094,-24.254 C 103.406,89.426 85.855,96.79 65.758,96.79 Z M 65.75,25.883 c 20.098,0 37.652,7.367 46.766,18.265 C 109.13517,34.38626 102.81081,25.912901 94.414,19.895 86.053314,13.904275 76.027418,10.680267 65.742,10.675 55.456582,10.680267 45.430686,13.904275 37.07,19.895 28.67202,25.911253 22.347881,34.38525 18.97,44.148 28.102,33.27 45.652,25.883 65.75,25.883 Z"
     fill="#f37726"
     id="path3"
     sodipodi:nodetypes="scccccsscccccs"
     style="fill:#d5d5d5;fill-opacity:1" />
  <path
     d="M38.164 117.984a9.671 9.671 0 01-1.371 5.399 9.5 9.5 0 01-9.59 4.504 9.405 9.405 0 01-4.98-2.418 9.671 9.671 0 01-2.809-4.797 9.73 9.73 0 01.313-5.567 9.624 9.624 0 013.328-4.453 9.466 9.466 0 0112.043.688 9.63 9.63 0 013.066 6.648zm0 0"
     fill="#9e9e9e"
     id="path4"
     style="fill:#d5d5d5;fill-opacity:1" />
  <path
     d="M21.285 23.418a5.53 5.53 0 01-3.14-.816 5.627 5.627 0 01-2.618-5.672 5.612 5.612 0 011.407-2.95 5.593 5.593 0 012.789-1.664 5.46 5.46 0 013.238.184 5.539 5.539 0 012.586 1.969 5.66 5.66 0 01-.399 7.129 5.557 5.557 0 01-3.867 1.82zm0 0"
     fill="#616262"
     id="path5"
     style="fill:#d5d5d5;fill-opacity:1" />
</svg>
